<svg xmlns="http://www.w3.org/2000/svg" xmlns:xlink="http://www.w3.org/1999/xlink" width="60" zoomAndPan="magnify" viewBox="0 0 45 30.000001" height="40" preserveAspectRatio="xMidYMid meet" version="1.0"><defs><g/><clipPath id="876783ea16"><path d="M 0.726562 0 L 44.273438 0 L 44.273438 29.03125 L 0.726562 29.03125 Z M 0.726562 0 " clip-rule="nonzero"/></clipPath><clipPath id="a91ea2ef9b"><path d="M 13.953125 0 L 31.371094 0 L 31.371094 21.773438 L 13.953125 21.773438 Z M 13.953125 0 " clip-rule="nonzero"/></clipPath><clipPath id="e0ed677379"><path d="M 0.25 1 L 3 1 L 3 5 L 0.25 5 Z M 0.25 1 " clip-rule="nonzero"/></clipPath><clipPath id="779c7d4d0f"><path d="M 21 1 L 24.867188 1 L 24.867188 5 L 21 5 Z M 21 1 " clip-rule="nonzero"/></clipPath><clipPath id="318328b88f"><rect x="0" width="25" y="0" height="7"/></clipPath><clipPath id="59cbddef45"><path d="M 15 26 L 31 26 L 31 29.03125 L 15 29.03125 Z M 15 26 " clip-rule="nonzero"/></clipPath><clipPath id="c7723dc9d7"><path d="M 0.125 1 L 2 1 L 2 3 L 0.125 3 Z M 0.125 1 " clip-rule="nonzero"/></clipPath><clipPath id="9b717d3ba9"><rect x="0" width="16" y="0" height="4"/></clipPath></defs><g clip-path="url(#876783ea16)"><path fill="#ffffff" d="M 0.726562 0 L 44.273438 0 L 44.273438 29.03125 L 0.726562 29.03125 Z M 0.726562 0 " fill-opacity="1" fill-rule="nonzero"/><path fill="#ffffff" d="M 0.726562 0 L 44.273438 0 L 44.273438 29.03125 L 0.726562 29.03125 Z M 0.726562 0 " fill-opacity="1" fill-rule="nonzero"/></g><g clip-path="url(#a91ea2ef9b)"><path fill="#606060" d="M 31.199219 14.0625 C 30.90625 18.082031 27.292969 21.40625 23.238281 21.582031 C 18.773438 21.773438 14.875 18.863281 14.160156 14.734375 C 13.988281 13.753906 14.035156 12.730469 13.984375 11.726562 C 13.957031 11.109375 14.210938 10.792969 14.875 10.800781 C 16.59375 10.8125 18.316406 10.804688 20.035156 10.792969 C 20.636719 10.789062 20.894531 11.066406 20.882812 11.652344 C 20.871094 12.089844 20.863281 12.53125 20.898438 12.964844 C 20.984375 14.03125 21.65625 14.683594 22.636719 14.6875 C 23.589844 14.695312 24.296875 14.121094 24.335938 13.066406 C 24.402344 11.183594 24.339844 9.300781 24.339844 7.417969 C 24.335938 6.980469 24.261719 6.515625 24.390625 6.117188 C 24.484375 5.835938 24.871094 5.460938 25.121094 5.46875 C 25.371094 5.472656 25.804688 5.882812 25.824219 6.140625 C 25.886719 7.144531 25.808594 8.15625 25.804688 9.164062 C 25.796875 10.375 25.816406 11.585938 25.8125 12.796875 C 25.804688 14.691406 24.601562 16.074219 22.902344 16.15625 C 21.003906 16.253906 19.625 15.074219 19.460938 13.109375 C 19.402344 12.386719 19.109375 12.179688 18.457031 12.195312 C 17.71875 12.21875 16.972656 12.1875 16.230469 12.191406 C 15.652344 12.191406 15.421875 12.46875 15.410156 13.070312 C 15.332031 16.554688 18.386719 19.910156 21.894531 20.164062 C 25.875 20.453125 29.425781 17.78125 29.71875 14.042969 C 29.925781 11.367188 29.792969 8.667969 29.816406 5.980469 C 29.824219 4.769531 29.828125 3.558594 29.863281 2.347656 C 29.878906 1.691406 29.675781 1.367188 28.9375 1.382812 C 26.578125 1.414062 24.214844 1.417969 21.851562 1.382812 C 21.03125 1.371094 20.800781 1.703125 20.828125 2.464844 C 20.878906 3.640625 20.839844 4.820312 20.855469 5.996094 C 20.863281 6.542969 20.746094 6.890625 20.074219 6.878906 C 19.441406 6.871094 19.367188 6.527344 19.371094 6.035156 C 19.386719 4.355469 19.40625 2.671875 19.386719 0.988281 C 19.378906 0.308594 19.640625 0 20.332031 0.00390625 C 23.636719 0.0117188 26.945312 0.015625 30.253906 0.0078125 C 30.976562 0.0078125 31.269531 0.328125 31.257812 1.054688 C 31.234375 3.136719 31.25 5.222656 31.25 7.308594 L 31.230469 7.308594 C 31.230469 9.5625 31.363281 11.824219 31.199219 14.0625 Z M 31.199219 14.0625 " fill-opacity="1" fill-rule="nonzero"/></g><g transform="matrix(1, 0, 0, 1, 10, 21)"><g clip-path="url(#318328b88f)"><g clip-path="url(#e0ed677379)"><g fill="#000000" fill-opacity="1"><g transform="translate(0.304306, 4.753714)"><g><path d="M 2.171875 -3.03125 L 2.171875 -0.96875 C 2.171875 -0.644531 2.078125 -0.394531 1.890625 -0.21875 C 1.710938 -0.0507812 1.472656 0.03125 1.171875 0.03125 C 0.847656 0.03125 0.585938 -0.0546875 0.390625 -0.234375 C 0.203125 -0.421875 0.109375 -0.679688 0.109375 -1.015625 L 0.84375 -1.015625 C 0.84375 -0.890625 0.867188 -0.789062 0.921875 -0.71875 C 0.972656 -0.65625 1.046875 -0.625 1.140625 -0.625 C 1.234375 -0.625 1.300781 -0.648438 1.34375 -0.703125 C 1.394531 -0.765625 1.421875 -0.851562 1.421875 -0.96875 L 1.421875 -3.03125 Z M 2.171875 -3.03125 "/></g></g></g></g><g fill="#000000" fill-opacity="1"><g transform="translate(2.792992, 4.753714)"><g><path d="M 1.703125 0.03125 C 1.410156 0.03125 1.144531 -0.03125 0.90625 -0.15625 C 0.675781 -0.289062 0.488281 -0.476562 0.34375 -0.71875 C 0.207031 -0.957031 0.140625 -1.222656 0.140625 -1.515625 C 0.140625 -1.816406 0.207031 -2.082031 0.34375 -2.3125 C 0.488281 -2.550781 0.675781 -2.738281 0.90625 -2.875 C 1.144531 -3.007812 1.410156 -3.078125 1.703125 -3.078125 C 1.984375 -3.078125 2.242188 -3.007812 2.484375 -2.875 C 2.722656 -2.738281 2.910156 -2.550781 3.046875 -2.3125 C 3.179688 -2.082031 3.25 -1.816406 3.25 -1.515625 C 3.25 -1.222656 3.175781 -0.957031 3.03125 -0.71875 C 2.894531 -0.476562 2.707031 -0.289062 2.46875 -0.15625 C 2.238281 -0.03125 1.984375 0.03125 1.703125 0.03125 Z M 1.703125 -0.640625 C 1.941406 -0.640625 2.132812 -0.71875 2.28125 -0.875 C 2.425781 -1.039062 2.5 -1.253906 2.5 -1.515625 C 2.5 -1.785156 2.425781 -2 2.28125 -2.15625 C 2.132812 -2.320312 1.941406 -2.40625 1.703125 -2.40625 C 1.453125 -2.40625 1.253906 -2.320312 1.109375 -2.15625 C 0.960938 -2 0.890625 -1.785156 0.890625 -1.515625 C 0.890625 -1.253906 0.960938 -1.039062 1.109375 -0.875 C 1.253906 -0.71875 1.453125 -0.640625 1.703125 -0.640625 Z M 1.703125 -0.640625 "/></g></g></g><g fill="#000000" fill-opacity="1"><g transform="translate(6.177262, 4.753714)"><g><path d="M 2.96875 0 L 2.234375 0 L 1 -1.875 L 1 0 L 0.265625 0 L 0.265625 -3.03125 L 1 -3.03125 L 2.234375 -1.15625 L 2.234375 -3.03125 L 2.96875 -3.03125 Z M 2.96875 0 "/></g></g></g><g fill="#000000" fill-opacity="1"><g transform="translate(9.415139, 4.753714)"><g><path d="M 2.15625 -0.53125 L 1.015625 -0.53125 L 0.84375 0 L 0.0625 0 L 1.171875 -3.03125 L 2.015625 -3.03125 L 3.109375 0 L 2.328125 0 Z M 1.96875 -1.109375 L 1.59375 -2.21875 L 1.21875 -1.109375 Z M 1.96875 -1.109375 "/></g></g></g><g fill="#000000" fill-opacity="1"><g transform="translate(12.588429, 4.753714)"><g><path d="M 2.4375 -3.03125 L 2.4375 -2.4375 L 1.640625 -2.4375 L 1.640625 0 L 0.90625 0 L 0.90625 -2.4375 L 0.109375 -2.4375 L 0.109375 -3.03125 Z M 2.4375 -3.03125 "/></g></g></g><g fill="#000000" fill-opacity="1"><g transform="translate(15.133091, 4.753714)"><g><path d="M 2.890625 -3.03125 L 2.890625 0 L 2.15625 0 L 2.15625 -1.25 L 1 -1.25 L 1 0 L 0.265625 0 L 0.265625 -3.03125 L 1 -3.03125 L 1 -1.84375 L 2.15625 -1.84375 L 2.15625 -3.03125 Z M 2.890625 -3.03125 "/></g></g></g><g fill="#000000" fill-opacity="1"><g transform="translate(18.280548, 4.753714)"><g><path d="M 2.15625 -0.53125 L 1.015625 -0.53125 L 0.84375 0 L 0.0625 0 L 1.171875 -3.03125 L 2.015625 -3.03125 L 3.109375 0 L 2.328125 0 Z M 1.96875 -1.109375 L 1.59375 -2.21875 L 1.21875 -1.109375 Z M 1.96875 -1.109375 "/></g></g></g><g clip-path="url(#779c7d4d0f)"><g fill="#000000" fill-opacity="1"><g transform="translate(21.453838, 4.753714)"><g><path d="M 2.96875 0 L 2.234375 0 L 1 -1.875 L 1 0 L 0.265625 0 L 0.265625 -3.03125 L 1 -3.03125 L 2.234375 -1.15625 L 2.234375 -3.03125 L 2.96875 -3.03125 Z M 2.96875 0 "/></g></g></g></g></g></g><g clip-path="url(#59cbddef45)"><g transform="matrix(1, 0, 0, 1, 15, 26)"><g clip-path="url(#9b717d3ba9)"><g clip-path="url(#c7723dc9d7)"><g fill="#000000" fill-opacity="1"><g transform="translate(0.249466, 2.570967)"><g><path d="M 0.078125 -0.625 C 0.078125 -0.75 0.101562 -0.859375 0.15625 -0.953125 C 0.21875 -1.054688 0.296875 -1.132812 0.390625 -1.1875 C 0.484375 -1.25 0.585938 -1.28125 0.703125 -1.28125 C 0.847656 -1.28125 0.96875 -1.242188 1.0625 -1.171875 C 1.164062 -1.109375 1.242188 -1.015625 1.296875 -0.890625 L 1.09375 -0.890625 C 1.0625 -0.972656 1.007812 -1.035156 0.9375 -1.078125 C 0.875 -1.117188 0.796875 -1.140625 0.703125 -1.140625 C 0.617188 -1.140625 0.539062 -1.117188 0.46875 -1.078125 C 0.394531 -1.035156 0.335938 -0.972656 0.296875 -0.890625 C 0.265625 -0.816406 0.25 -0.726562 0.25 -0.625 C 0.25 -0.53125 0.265625 -0.441406 0.296875 -0.359375 C 0.335938 -0.285156 0.394531 -0.226562 0.46875 -0.1875 C 0.539062 -0.144531 0.617188 -0.125 0.703125 -0.125 C 0.796875 -0.125 0.875 -0.144531 0.9375 -0.1875 C 1.007812 -0.226562 1.0625 -0.289062 1.09375 -0.375 L 1.296875 -0.375 C 1.242188 -0.25 1.164062 -0.148438 1.0625 -0.078125 C 0.96875 -0.015625 0.847656 0.015625 0.703125 0.015625 C 0.585938 0.015625 0.484375 -0.0078125 0.390625 -0.0625 C 0.296875 -0.125 0.21875 -0.203125 0.15625 -0.296875 C 0.101562 -0.398438 0.078125 -0.507812 0.078125 -0.625 Z M 0.078125 -0.625 "/></g></g></g></g><g fill="#000000" fill-opacity="1"><g transform="translate(2.566687, 2.570967)"><g><path d="M 0.71875 0.015625 C 0.59375 0.015625 0.484375 -0.0078125 0.390625 -0.0625 C 0.296875 -0.125 0.21875 -0.203125 0.15625 -0.296875 C 0.101562 -0.398438 0.078125 -0.507812 0.078125 -0.625 C 0.078125 -0.75 0.101562 -0.859375 0.15625 -0.953125 C 0.21875 -1.054688 0.296875 -1.132812 0.390625 -1.1875 C 0.484375 -1.25 0.59375 -1.28125 0.71875 -1.28125 C 0.832031 -1.28125 0.9375 -1.25 1.03125 -1.1875 C 1.132812 -1.132812 1.210938 -1.054688 1.265625 -0.953125 C 1.316406 -0.859375 1.34375 -0.75 1.34375 -0.625 C 1.34375 -0.507812 1.316406 -0.398438 1.265625 -0.296875 C 1.210938 -0.203125 1.132812 -0.125 1.03125 -0.0625 C 0.9375 -0.0078125 0.832031 0.015625 0.71875 0.015625 Z M 0.71875 -0.125 C 0.800781 -0.125 0.878906 -0.144531 0.953125 -0.1875 C 1.023438 -0.226562 1.078125 -0.285156 1.109375 -0.359375 C 1.148438 -0.441406 1.171875 -0.53125 1.171875 -0.625 C 1.171875 -0.726562 1.148438 -0.816406 1.109375 -0.890625 C 1.078125 -0.972656 1.023438 -1.035156 0.953125 -1.078125 C 0.878906 -1.117188 0.800781 -1.140625 0.71875 -1.140625 C 0.625 -1.140625 0.539062 -1.117188 0.46875 -1.078125 C 0.40625 -1.035156 0.351562 -0.972656 0.3125 -0.890625 C 0.269531 -0.816406 0.25 -0.726562 0.25 -0.625 C 0.25 -0.53125 0.269531 -0.441406 0.3125 -0.359375 C 0.351562 -0.285156 0.40625 -0.226562 0.46875 -0.1875 C 0.539062 -0.144531 0.625 -0.125 0.71875 -0.125 Z M 0.71875 -0.125 "/></g></g></g><g fill="#000000" fill-opacity="1"><g transform="translate(4.909347, 2.570967)"><g><path d="M 1.421875 -1.25 L 1.421875 0 L 1.25 0 L 1.25 -0.9375 L 0.84375 0 L 0.71875 0 L 0.296875 -0.9375 L 0.296875 0 L 0.140625 0 L 0.140625 -1.25 L 0.3125 -1.25 L 0.78125 -0.21875 L 1.25 -1.25 Z M 1.421875 -1.25 "/></g></g></g><g fill="#000000" fill-opacity="1"><g transform="translate(7.388288, 2.570967)"><g><path d="M 0.984375 -0.890625 C 0.984375 -0.785156 0.945312 -0.695312 0.875 -0.625 C 0.800781 -0.5625 0.691406 -0.53125 0.546875 -0.53125 L 0.296875 -0.53125 L 0.296875 0 L 0.140625 0 L 0.140625 -1.265625 L 0.546875 -1.265625 C 0.691406 -1.265625 0.800781 -1.226562 0.875 -1.15625 C 0.945312 -1.09375 0.984375 -1.003906 0.984375 -0.890625 Z M 0.546875 -0.65625 C 0.640625 -0.65625 0.707031 -0.675781 0.75 -0.71875 C 0.789062 -0.757812 0.8125 -0.816406 0.8125 -0.890625 C 0.8125 -1.046875 0.722656 -1.125 0.546875 -1.125 L 0.296875 -1.125 L 0.296875 -0.65625 Z M 0.546875 -0.65625 "/></g></g></g><g fill="#000000" fill-opacity="1"><g transform="translate(9.354813, 2.570967)"><g><path d="M 0.890625 -0.28125 L 0.328125 -0.28125 L 0.234375 0 L 0.0625 0 L 0.515625 -1.25 L 0.703125 -1.25 L 1.15625 0 L 0.984375 0 Z M 0.84375 -0.421875 L 0.609375 -1.046875 L 0.375 -0.421875 Z M 0.84375 -0.421875 "/></g></g></g><g fill="#000000" fill-opacity="1"><g transform="translate(11.493962, 2.570967)"><g><path d="M 1.125 0 L 0.96875 0 L 0.296875 -1 L 0.296875 0 L 0.140625 0 L 0.140625 -1.265625 L 0.296875 -1.265625 L 0.96875 -0.265625 L 0.96875 -1.265625 L 1.125 -1.265625 Z M 1.125 0 "/></g></g></g><g fill="#000000" fill-opacity="1"><g transform="translate(13.685805, 2.570967)"><g><path d="M 1.03125 -1.265625 L 0.609375 -0.484375 L 0.609375 0 L 0.453125 0 L 0.453125 -0.484375 L 0.03125 -1.265625 L 0.21875 -1.265625 L 0.53125 -0.625 L 0.84375 -1.265625 Z M 1.03125 -1.265625 "/></g></g></g></g></g></g></svg>